<svg width="305" height="304" viewBox="0 0 305 304" fill="none" xmlns="http://www.w3.org/2000/svg">
<path d="M113.241 127.996C109.886 128.824 105.946 130.069 101.817 131.312C99.2123 132.098 96.5164 132.889 93.708 133.643C92.0426 134.098 91.8492 133.081 91.1218 133.171C90.3298 133.271 89.4007 133.969 88.7482 134.537C88.298 134.926 87.96 135.259 87.8435 135.306C86.067 136.045 86.0764 134.1 85.8087 134.134C82.8223 134.599 84.4054 136.151 81.9443 137.458C80.2417 138.375 78.2076 139.285 76.087 140.245C74.2316 141.083 72.3063 141.961 70.4817 142.892C69.1081 143.597 69.0512 142.044 66.1856 143.793C65.5271 144.199 64.4728 145.022 63.2672 145.953C60.7878 147.849 57.6624 150.268 55.2248 150.594C54.8514 150.086 54.8094 149.272 54.5912 148.634C53.4814 150.796 52.64 152.169 51.5466 153.325C50.1657 154.8 48.3456 155.915 45.4765 157.953C44.6793 158.529 44.8033 159.859 43.3565 160.731C42.6582 161.169 42.0141 161.183 41.2849 161.332C40.4437 161.509 39.4167 161.932 38.1543 163.434C37.3183 164.444 37.7104 165.8 36.4747 167.434C35.6459 168.535 34.611 169.789 33.4647 171.173C30.8284 174.338 27.7548 178.083 25.6199 181.174C24.6921 182.507 23.933 183.707 23.4158 184.657C21.8938 187.453 20.9939 189.958 20.3799 192.249C19.3591 196.154 19.043 199.486 18.5512 202.928C18.4981 203.326 18.4454 203.722 18.3931 204.116C18.338 204.583 17.0628 203.526 17.0304 204.409C17.0049 205.358 18.7909 206.025 18.8516 206.175C19.2477 207.352 18.9337 209.165 19.2645 210.733C19.4348 211.672 19.8197 212.503 20.1813 212.726C22.5726 213.962 20.9036 211.729 24.0207 213.541C24.6324 213.849 25.3505 214.263 26.2538 214.746C26.2538 214.746 26.2538 214.746 26.2538 214.746C29.496 216.444 32.8162 218.751 35.9425 220.686C37.578 221.699 39.1442 222.603 40.6037 223.279C42.7109 224.255 44.4457 224.527 45.9402 224.68C48.6819 224.946 50.5147 224.857 53.0061 227.547C53.8961 227.702 54.7852 227.833 55.6713 227.94C58.9974 228.34 62.2869 228.382 65.5765 228.045C68.8526 227.712 72.1382 227 75.3804 225.981C78.7241 224.922 81.6613 223.719 85.0502 222.088C87.3078 220.986 89.4353 219.781 91.7078 218.416C93.9333 217.073 96.1524 215.642 98.3339 214.16C98.58 213.993 98.8266 213.824 99.0734 213.654C99.4065 214.238 99.7325 214.827 100.056 215.417C100.963 214.249 101.849 213.072 102.719 211.892C102.837 212.42 102.961 212.944 103.072 213.47C103.884 212.453 104.679 211.471 105.474 210.518C107.208 208.438 108.947 206.501 110.841 204.61C112.56 202.888 114.419 201.202 116.424 199.463C116.53 199.371 116.633 199.282 116.743 199.186C116.85 199.093 117.536 200.298 117.643 200.24C118.973 199.269 119.447 197.208 120.335 196.478C120.79 196.099 121.378 195.686 122.002 195.179C122.002 195.179 122.002 195.179 122.002 195.179C147.356 194.897 127.485 204.039 135.555 200.565C135.417 201.006 135.275 201.432 135.132 201.859C134.423 203.929 133.737 205.88 133.079 207.872C132.438 209.802 131.822 211.734 131.215 213.656C130.605 215.586 130.006 217.499 129.407 219.353C128.787 221.276 128.155 223.166 127.541 224.883C127.256 225.684 126.977 226.442 126.713 227.133C126.215 228.496 125.767 228.708 125.255 228.884C124.526 230.137 123.715 230.9 123.592 231.961C123.384 233.721 125.241 232.907 125.279 233.543C125.369 235.216 125.335 237.306 125.103 239.181C124.802 241.591 124.188 243.618 123.031 243.929C123.811 244.707 124.604 245.493 125.399 246.255C124.628 246.086 124.183 247.298 123.979 249.073C123.612 252.022 124.095 256.32 124.494 258.451C124.548 258.772 124.593 259.047 124.625 259.27C124.696 259.75 123.737 259.991 123.816 260.359C124.644 263.834 126.199 264.618 127.67 266.407C127.924 266.703 128.186 267.029 128.456 267.388C129.151 268.26 126.733 267.612 128.882 269.728C129.11 269.878 130.212 269.029 132.274 271.542C132.494 271.796 132.745 272.07 133.007 272.341C134.643 274.015 136.58 275.569 139.628 277.456C142.819 279.412 145.716 280.919 148.686 282.314C150.093 282.976 151.424 283.564 152.617 284.098C153.161 284.329 150.913 285.426 153.634 285.837C154.603 285.951 154.493 284.708 156.704 285.207C157.157 285.302 157.608 285.393 158.057 285.478C161.196 286.077 164.397 286.444 167.647 286.306C170.841 286.176 174.071 285.541 177.091 284.289C179.034 283.486 180.891 282.431 182.57 281.145C182.991 282.473 180.747 285.538 184.767 282.204C185.39 281.645 184.217 280.942 184.5 280.709C184.967 280.323 185.446 279.979 185.935 279.652C187.764 278.426 189.764 277.445 191.368 275.514C191.977 274.773 191.498 273.916 192.208 272.921C192.453 272.576 192.725 272.325 193.014 272.121C193.014 272.121 193.014 272.121 193.014 272.121C193.722 271.673 194.665 271.582 194.836 270.449C195.043 268.148 194.04 267.417 197.596 264.749C197.65 264.57 197.697 264.408 197.746 264.237C198.779 260.641 199.464 256.634 199.958 252.616C200.453 248.568 200.767 244.416 201.004 240.231C201.241 236.037 201.398 231.786 201.572 227.511C201.76 223.169 201.912 218.898 202.393 214.235C192.889 213.401 225.474 193.247 221.157 207.837C221.157 207.837 221.157 207.837 221.157 207.837C222.498 210.386 223.791 212.547 225.279 214.722C226.002 215.471 226.741 216.186 227.486 216.861C230.196 219.311 233.032 221.31 236.007 222.965C237.219 223.638 238.451 224.249 239.72 224.803C241.249 225.424 240.902 227.237 243.72 227.525C243.855 227.536 244.181 227.517 244.598 227.502C246.145 227.501 248.671 227.245 249.056 229.982C250.325 229.744 251.107 229.718 252.155 229.464C251.32 229.008 250.503 228.501 249.8 227.96C251.235 228.195 252.616 228.078 253.889 227.752C256.344 227.117 258.355 225.771 260.405 224.382C262.412 222.95 261.825 224.513 262.685 224.23C262.794 224.191 262.927 224.12 263.091 224.004C264.557 222.95 265.035 222.238 267.907 222.288C267.958 220.068 269.171 219.931 271.171 218.424C271.631 218.069 272.113 217.659 272.595 217.165C272.885 216.874 273.861 214.642 275.092 213.379C275.977 212.469 277.299 212.916 278.396 211.063C278.449 210.975 278.601 210.52 278.784 209.897C279.267 208.353 279.817 205.793 280.172 204.889C280.992 202.988 283.756 200.55 284.011 200.042C284.016 200.034 284.02 200.026 284.023 200.019C286.118 195.105 285.456 192.341 287.372 189.174C287.702 188.608 288.104 188.016 288.602 187.377C287.168 186.199 286.681 182.319 286.992 179.129C287.051 178.564 287.171 177.927 287.321 177.228C288.265 172.991 290.227 166.504 287.242 165.525C287.32 165.27 287.392 165.024 287.457 164.799C288.652 160.604 287.784 160.826 287.714 155.156C287.704 154.277 287.729 153.189 287.782 151.924C287.782 151.924 287.782 151.924 287.782 151.924C287.902 148.816 287.867 146.038 287.116 142.876C286.413 139.839 285.052 137.282 284.124 136.136C283.698 135.599 283.316 135.283 282.988 135.105C281.636 134.401 281.214 135.892 280.373 135.248C278.607 134.007 280.422 133.839 279.308 132.794C278.072 131.683 276.756 130.721 275.369 129.873C273.118 128.499 270.692 127.421 267.959 126.537C268.167 125.531 268.347 124.507 268.522 123.488C268.155 123.685 267.791 123.884 267.429 124.085C267.372 124.059 267.316 124.033 267.258 124.007C266.366 123.6 265.363 123.193 264.53 122.826C268.717 128.222 262.994 123.531 257.246 120.501C255.359 119.472 253.527 118.59 252.324 118.203C250.819 117.72 248.849 117.425 246.688 117.189C246.688 117.189 246.688 117.189 246.687 117.189C241.383 117.21 237.746 107.782 238.565 105.887C238.548 102.642 239.028 100.554 239.486 98.7041C239.593 98.3049 239.698 97.9417 239.809 97.59C240.243 96.2453 240.87 97.555 240.956 97.2801C241.486 95.6076 241.62 94.6689 241.913 93.5586C242.169 92.599 242.554 91.5167 243.461 89.8895C243.667 89.5209 243.918 89.1791 244.194 88.8588C245.317 87.5478 246.859 86.5449 247.596 85.2137C247.61 85.1887 247.623 85.1639 247.637 85.1391C248.345 83.8929 249.202 82.1128 249.154 82.1366C249.772 79.9402 250.141 77.9184 250.437 75.6325C250.72 73.3819 250.868 71.102 250.9 68.8332C250.932 66.5599 250.848 64.2971 250.653 62.0803C250.459 59.8699 250.154 57.7035 249.733 55.6397C249.342 53.7184 248.846 51.884 248.251 50.2434C248.212 50.1363 248.18 50.0301 248.153 49.9221C247.781 48.3949 248.435 46.5214 247.88 45.617C247.703 45.3309 247.459 45.0531 247.177 44.8076C245.614 43.3396 243.899 42.6575 242.522 41.0136C241.302 39.5548 240.338 37.1094 239.356 35.4362C238.995 34.8116 238.618 34.2819 238.244 33.9696C236.898 32.8557 237.735 36.0757 235.924 33.4813C235.079 32.2958 237.678 33.358 236.475 32.0306C235.01 30.4251 233.137 28.8332 231.155 27.3461C228.149 25.0726 225.032 23.2436 222.525 21.2457C222.425 21.1651 222.325 21.0839 222.226 21.0021C222.257 21.1971 222.307 21.3928 222.362 21.5893C222.423 21.8099 222.49 22.0316 222.543 22.2541C222.41 22.1844 222.277 22.1153 222.144 22.0467C219.064 20.4615 215.961 19.1503 212.392 18.2305C210.552 17.7584 208.577 17.3958 206.463 17.1887C205.077 17.0477 202.958 17.3144 201.015 17.5718C199.806 17.7295 198.664 17.8765 197.779 17.8804C195.543 17.8948 194.477 16.8187 192.595 16.8559C191.809 16.8719 192.172 17.8518 191.659 17.8533C190.759 17.8553 189.89 17.8318 189.042 17.7914C186.685 17.8499 186.473 17.038 183.941 19.2127C183.358 19.796 182.813 20.5089 182.285 21.4673C181.348 23.1765 180.545 25.1107 179.833 27.1752C178.777 30.2496 177.936 33.5781 177.207 36.99C176.482 40.3887 175.869 43.8881 175.266 47.458C174.65 51.0539 174.098 54.6383 173.249 58.5493C170.725 59.2932 176.617 74.9739 155.615 68.4288C152.724 65.6822 149.933 63.0958 147.048 60.6036C144.167 58.1184 141.27 55.8087 138.32 53.8095C137.611 53.3294 136.894 52.8629 136.178 52.4201C135.391 51.9358 134.186 52.6977 132.989 52.2104C131.145 51.4857 131.591 50.4625 131.375 50.2944C130.137 49.4123 130.085 50.2451 128.756 49.8491C128.552 49.7904 128.317 49.7047 128.04 49.5835C125.736 48.5616 122.675 47.2438 119.349 46.2632C116.095 45.2852 112.627 44.6161 109.901 44.4042C109.544 44.3761 109.186 44.3504 108.824 44.3271C104.942 44.0816 101.427 44.1241 97.5837 44.295C94.2806 44.4499 91.3793 44.711 88.3983 45.1311C85.4957 45.5469 82.7095 46.1185 80.1876 46.9071C78.6966 47.373 77.2954 47.9185 76.0525 48.539C75.4798 48.8414 75.2431 47.247 74.1751 47.753C73.7834 47.9452 73.4222 48.144 73.0947 48.3428C70.8167 49.7571 69.8359 51.1933 69.0389 52.7519C68.2669 54.36 67.7008 56.1112 67.1287 58.9804C66.8215 60.6073 66.5671 62.2875 66.3709 64.7948C66.3256 65.3975 66.2881 66.0703 66.2657 66.8119C66.1883 71.5781 66.6249 75.5035 68.7367 80.7547C70.5105 85.066 73.4461 89.3568 77.1067 93.0789C80.971 97.0399 85.5675 100.349 89.8699 102.851C90.8265 103.409 91.7797 103.934 92.6984 104.417C92.6968 104.42 92.6952 104.423 92.6936 104.426C97.2337 104.23 101.556 106.031 105.53 108.582C106.574 109.255 107.584 109.981 108.554 110.741C107.338 110.647 106.131 110.521 104.927 110.361C99.154 109.59 93.521 108.053 88.2387 105.766C82.9418 103.47 77.9841 100.406 73.731 96.5848C69.5024 92.7892 65.9901 88.2224 63.6686 83.0854C61.3565 77.9257 60.3098 72.7444 60.3874 66.8119C60.452 63.5423 60.7365 60.7136 61.4229 57.7255C62.0895 54.8755 63.1393 52.1836 64.6756 49.8728C65.6279 48.435 66.7738 47.1336 68.0994 45.997C68.8647 45.3401 69.6881 44.7356 70.5689 44.1796C72.9416 42.6797 75.7044 41.5592 78.6632 40.7188C81.5895 39.8871 84.7063 39.3204 87.8937 38.9076C91.0744 38.4986 94.2644 38.2411 97.5837 38.056C101.566 37.8391 105.394 37.715 109.366 37.796C113.27 37.8763 117.177 38.1555 121.058 38.789C124.918 39.4163 128.741 40.4106 132.421 41.8505C136.105 43.2837 139.642 45.1647 142.979 47.3402C146.332 49.524 149.495 51.9871 152.532 54.5789C155.58 57.1833 158.496 59.909 161.346 62.6975C163.369 65.4969 164.873 59.5301 165.66 56.6846C165.786 56.2028 165.913 55.6937 166.038 55.1834C166.875 51.6967 168.718 50.5456 168.98 47.4731C169.024 46.9521 167.545 48.0357 167.728 46.4397C167.746 46.2901 167.764 46.1401 167.782 45.9896C168.213 42.3963 168.797 38.767 169.612 35.1441C170.419 31.5724 171.446 27.9901 172.832 24.5191C174.237 21.0482 175.955 17.6649 178.498 14.7387C180.914 11.8543 184.782 9.5561 188.586 9.58596C192.826 9.49057 197.021 9.4729 201.175 9.58025C204.582 9.67064 207.914 9.84271 211.246 10.1703C212.222 10.2678 213.011 10.3266 213.777 10.3712C217.54 10.6452 219.151 9.9346 223.51 11.1915C222.395 11.4681 221.581 11.9111 220.635 12.2965C222.349 13.0221 224.016 13.835 225.62 14.7388C229.279 16.7909 232.599 19.3393 235.635 22.1527C238.668 24.9595 241.478 28.0377 244.188 31.1806C246.909 34.3433 249.509 37.5475 252.145 40.8332C253.666 42.743 254.747 44.8934 255.603 47.2183C256.443 49.5194 257.024 51.9425 257.422 54.3925C257.818 56.8421 258.032 59.3277 258.102 61.8215C258.142 63.2472 258.133 64.6755 258.08 66.1032C258.035 67.1573 256.675 67.2365 256.57 68.3128C256.539 68.6111 256.537 68.9085 256.556 69.208C256.674 71.0552 257.597 72.9486 257.416 74.6089C257.312 75.5456 257.08 76.1546 256.816 76.6876C256.368 77.5697 255.846 78.1932 255.596 79.602C255.387 80.6898 256.504 80.599 255.715 82.93C255.66 83.0823 254.989 83.0226 254.548 83.7347C254.443 83.8716 254.324 84.11 254.244 84.3777C253.984 85.2391 253.44 86.5668 252.866 87.9355C252.263 89.3635 251.598 90.9021 250.944 92.4566C250.279 94.0382 249.637 95.6197 249.1 97.0359C248.557 98.4632 248.121 99.7285 247.822 100.65C247.705 101.009 247.589 101.346 247.463 101.695C246.852 103.409 246.159 104.914 245.741 106.449C244.883 108.312 246 111.491 247.645 111.886C247.818 111.963 247.986 112.025 248.148 112.076C248.148 112.076 248.148 112.076 248.148 112.076C252.4 113.478 252.873 111.952 256.719 113.127C257.611 113.403 258.5 113.688 259.383 113.981C262.981 115.175 266.508 116.521 269.901 118.113C273.314 119.716 276.592 121.568 279.595 123.769C282.601 125.972 285.325 128.538 287.52 131.474C289.716 134.4 291.363 137.698 292.356 141.178C293.358 144.694 293.712 148.164 293.613 151.924C293.613 151.924 293.613 151.924 293.613 151.924C293.493 156.19 293.451 160.477 293.404 164.757C293.356 168.992 293.304 173.227 293.114 177.468C293.072 178.401 293.024 179.32 292.966 180.255C292.889 181.737 293.712 186.543 293.507 190.212C293.465 191.123 293.369 191.958 293.215 192.636C293.036 193.814 290.95 199.562 290.53 200.361C290.267 201.026 289.967 201.645 289.642 202.235C288.283 204.701 286.533 206.462 285.614 207.756C284.529 209.288 283.767 211.11 283.073 212.821C282.352 214.608 281.734 216.239 281.108 217.165C279.904 218.98 277.797 221.345 275.907 223.159C274.526 224.498 273.323 225.47 272.797 225.892C269.761 228.209 269.482 225.637 267.626 227.562C267.056 228.097 268.705 229.098 266.257 230.541C266.256 230.542 266.254 230.543 266.252 230.544C264.158 231.692 262.749 230.92 261.262 231.283C259.81 231.66 257.589 234.307 256.515 234.443C255.96 234.527 255.428 234.578 254.922 234.605C250.693 234.71 248.368 233.703 243.671 232.624C243.561 232.596 243.441 232.565 243.311 232.532C241.257 232.047 236.792 230.648 232.608 227.999C228.942 225.765 225.528 222.719 223.33 220.465C221.864 218.975 220.897 217.88 220.552 217.599C215.636 213.29 219.391 218.719 222.099 221.533C222.914 222.41 223.595 223.069 223.709 223.213C226.419 226.497 225.524 226.761 229.777 228.241C229.814 229.119 230.196 229.925 230.821 230.646C233.116 233.34 238.569 234.533 242.586 235.368C245.106 235.954 247.181 236.602 248.276 238.471C250.927 236.207 252.824 236.09 255.169 236.239C256.356 236.309 257.612 236.437 258.952 236.337C264.394 235.684 259.868 234.968 263.399 233.589C264.127 233.275 265.727 233.042 267.391 232.558C268.878 232.139 270.383 231.533 271.22 230.808C272.97 229.257 272.942 227.684 275.099 225.655C275.668 225.106 276.226 224.566 276.78 224.032C279.855 221.054 282.666 218.715 286.006 216.271C285.977 215.747 285.932 215.237 285.878 214.734C285.817 214.207 285.763 213.662 285.697 213.125C287.992 210.937 290.139 208.518 292.091 205.868C291.344 206.103 290.594 206.312 289.849 206.509C290.155 205.66 290.455 204.782 290.724 203.921C290.981 203.604 291.237 203.277 291.486 202.953C293.135 200.801 294.606 198.55 296.048 196.031C295.668 193.234 295.478 191.633 295.55 190.558C295.672 188.084 297.178 188.519 297.862 185.227C298.467 182.147 297.845 179.84 297.388 177.646C297.143 176.476 296.938 175.328 296.961 174.08C297.023 170.181 296.845 167.972 296.838 164.733C296.835 163.951 296.84 163.097 296.859 162.145C296.91 159.328 298.777 154.545 295.791 158.488C295.716 156.443 295.61 154.232 295.522 151.924C295.522 151.924 295.522 151.924 295.522 151.924C295.389 148.189 294.735 144.326 293.58 140.781C292.384 137.038 290.645 133.717 289.096 130.943C288.974 130.724 288.893 130.551 288.845 130.413C288.668 129.91 288.963 129.885 289.354 130.005C289.874 130.161 290.548 130.595 290.468 130.388C290.335 130.062 290.16 129.778 289.953 129.526C288.871 128.213 287.085 127.821 285.959 126.488C284.827 125.139 283.086 123.162 281.222 121.418C279.393 119.685 277.482 118.17 276.33 117.389C274.947 116.444 272.991 115.751 271.153 115.319C268.552 114.699 266.199 114.58 265.828 114.527C262.3 114.063 261.96 112.235 260.859 111.978C260.597 111.92 260.341 111.864 260.094 111.813C254.468 110.671 253.047 110.839 252.132 107.071C251.572 107.364 250.533 107.609 249.382 107.759C249.382 107.759 249.382 107.759 249.382 107.759C248.867 108.302 248.037 108.256 248.084 106.633C248.151 105.627 248.715 104.736 249.598 104.546C248.746 104.29 248.486 103.387 248.64 102.137C248.801 100.776 249.44 99.0822 250.052 97.4961C250.325 96.7813 250.591 96.0845 250.795 95.4452C251.682 95.1721 252.569 94.9024 253.461 94.6484C253.452 94.3685 253.454 94.0857 253.466 93.8009C253.541 92.2332 253.944 90.58 254.566 88.8449C255.06 87.3941 255.814 85.8723 256.338 84.265C256.995 81.9318 257.688 79.4369 258.314 76.9355C258.942 74.4221 259.504 71.8773 259.907 69.4301C260.237 67.4272 260.459 65.4937 260.535 63.7155C260.541 63.4771 258.962 63.0896 259.132 61.7857C259.139 61.7296 259.15 61.6717 259.163 61.612C259.19 61.518 259.975 61.6434 260.029 60.6552C260.09 59.4113 260.284 56.8173 260.218 53.939C260.171 51.1442 259.817 48.0715 259.299 45.877C258.971 44.4385 258.604 43.3758 258.447 43.0316C257.363 40.6716 256.058 39.2579 255.077 38.4871C253.854 37.5265 252.906 37.0267 251.726 35.6853C249.053 32.6791 249.447 31.451 246.966 28.7342C246.889 28.6504 246.809 28.5656 246.726 28.4796C245.416 27.1225 243.167 26.8936 241.274 24.6601C240.155 23.361 240.833 22.3525 239.889 21.3304C239.242 20.638 238.606 20.0326 237.958 19.4597C235.101 16.9587 232.437 15.3466 229.747 12.3917C228.178 13.8734 227.347 13.5821 226.543 12.8001C225.854 12.1302 225.188 11.1054 224.244 10.5898C221.33 8.97936 217.815 7.95093 214.298 7.41442C209.749 6.7103 205.209 6.75632 201.232 6.77396C199.658 6.78167 198.097 6.78512 196.735 6.73836C193.893 6.64429 191.157 6.6042 188.42 6.59397C184.008 6.32209 178.524 9.50166 175.924 12.6228C172.886 15.9607 170.937 19.5566 169.258 23.163C167.602 26.7767 166.303 30.4281 165.161 34.0621C164.027 37.6805 163.06 41.3025 162.158 44.886C161.263 48.4227 160.451 51.9483 159.549 55.1829C159.299 56.0661 159.048 56.8907 158.781 57.6473C157.196 61.4061 160.402 56.7304 164.635 59.4087C164.519 59.2956 164.402 59.1766 164.284 59.051C163.096 57.7891 162.805 55.5405 160.715 53.5026C159.652 52.4641 158.091 51.3743 156.508 50.2104C155.602 49.5444 154.698 48.8626 153.883 48.1514C153.284 47.6326 154.085 46.6022 153.191 45.8334C151.338 44.2456 149.356 42.7466 147.276 41.3741C143.631 38.9652 139.613 36.9192 135.395 35.3598C133.211 34.5492 130.974 33.864 128.718 33.2902C125.364 32.4482 123.691 30.3455 123.541 33.3799C123.193 33.0516 122.858 32.7403 122.51 32.4333C121.771 31.7803 121.027 31.1603 120.305 30.5178C116.615 31.2472 113.854 30.1491 110.048 29.5547C108.72 29.3524 107.343 29.2223 105.748 29.2681C105.064 29.2752 100.391 31.1938 97.9083 29.7154C97.7253 30.7836 98.1236 31.6916 98.0472 32.6592C97.8976 32.683 97.7428 32.7012 97.5837 32.7145C95.1253 32.9126 91.5329 31.9157 89.8943 31.8999C88.8224 31.8801 87.9778 32.4588 87.407 32.9057C87.0648 33.1725 86.7983 33.394 86.6059 33.4165C84.6561 33.6395 84.9131 31.7905 84.7568 31.7732C80.4312 31.4726 78.1548 31.7715 76.6088 32.3789C74.7422 33.159 73.7894 34.3837 71.4145 36.9577C71.0102 37.4176 69.3185 37.9809 67.4112 38.9746C64.3043 40.4498 60.9837 43.6143 61.3645 45.4226C60.6087 44.9558 60.3516 44.0291 59.8194 43.3553C59.1804 44.0281 58.5782 44.7339 58.0107 45.4752C56.5889 47.3302 55.4212 49.3662 54.4945 51.4666C55.5198 51.1141 56.5989 50.701 57.6136 50.5112C56.47 52.4503 55.9564 54.5311 55.763 56.4807C55.4284 59.8915 55.9787 62.9484 55.8856 65.8703C55.8745 66.2325 55.8337 66.5428 55.7711 66.8121C55.3883 68.5057 54.0445 68.4821 54.4727 69.8518C54.5753 70.1572 55.7996 69.5851 55.9693 70.4814C57.2924 76.663 57.4427 79.9531 59.2118 85.135C59.5664 86.102 59.9972 87.1175 60.549 88.1984C62.2519 91.4308 65.7513 92.5814 67.914 97.2523C68.0281 97.492 68.6216 99.1105 69.9515 100.51C71.0265 101.651 72.5938 102.624 74.4762 102.465C74.6215 103.783 74.9976 104.697 75.1086 105.761C82.2114 105.883 79.0754 108.051 84.3762 112.668C84.7242 112.958 85.1098 113.255 85.5383 113.556C88.041 115.405 95.5854 118.64 101.587 120.214C104.143 120.923 106.4 121.41 107.792 121.655C110.578 122.127 110.941 120.433 111.434 120.493C114.381 120.807 114.001 122.412 116.756 122.709C117.772 122.811 118.929 122.701 120.117 122.545C122.104 122.28 124.192 121.88 125.888 122.197C127.986 122.571 126.085 124.443 129.314 124.043C129.978 123.941 128.285 122.061 131.518 123.002C132.001 123.182 137.269 125.29 138.396 125.652C135.578 126.85 127.057 127.682 123.848 127.601C122.364 127.61 120.819 127.577 119.258 127.505C113.334 127.226 106.879 126.365 100.071 124.686C94.0451 123.192 87.7414 121.064 81.3933 117.998C75.5222 115.151 69.584 111.492 64.07 106.619C58.8279 101.983 53.9644 96.1555 50.4966 89.1429C47.1489 82.7078 45.1113 73.7174 45.0857 66.8121C44.9815 63.3068 45.2241 58.5775 46.1011 54.3557C46.9747 50.0379 48.578 45.3942 51.3573 41.0851C54.1076 36.7567 58.0595 33.0138 62.2452 30.4592C66.4699 27.8526 70.7915 26.3022 74.8561 25.264C78.9727 24.2232 82.8918 23.6892 86.6332 23.3625C90.373 23.0379 94.2222 22.9333 97.5836 22.9267C101.733 22.915 106.254 23.0466 110.557 23.4117C115.055 23.7911 119.59 24.4278 124.1 25.4798C128.821 26.5749 133.488 28.1578 137.774 30.1692C142.369 32.3117 146.485 34.9045 150.042 37.5331C153.405 40.017 156.324 42.5386 158.935 44.9366C159.38 45.3451 159.809 45.7721 160.183 46.1731C163.319 49.5433 164.577 52.8161 166.65 55.0613C167.281 55.7477 167.677 56.0169 167.96 56.0845C166.944 55.2802 172.578 56.6971 164.218 53.0195C146.042 60.5752 158.885 56.7446 156.647 55.1533C156.716 54.9216 156.773 54.7353 156.836 54.5165C157.713 51.4612 158.5 47.928 159.34 44.3332C160.175 40.7487 161.05 37.0576 162.085 33.3145C163.125 29.5688 164.311 25.7539 165.89 21.8852C167.521 17.9817 169.422 14.0021 172.755 10.0181C175.362 6.3045 183.016 1.68737 188.165 2.0126C189.045 1.9793 189.912 1.95052 190.77 1.92645C194.545 1.82037 197.914 1.04809 201.353 0.737605C202.609 0.6295 203.804 0.578128 205.138 0.647775C207.046 0.75717 207.028 2.49014 208.373 2.5855C210.584 2.75825 212.799 2.97909 215.024 3.2923C219.753 3.9506 224.645 5.08797 229.293 7.01796C233.969 8.93684 238.32 11.6395 242.063 14.7C244.516 16.6998 246.715 18.8173 248.772 21.062C249.801 22.1871 250.745 23.39 251.632 24.6256C254.234 28.2481 256.404 32.2028 258.848 35.4705C258.922 35.5685 258.997 35.6682 259.073 35.7694C261.044 38.3733 262.853 41.5007 264.065 44.147C265.176 46.5564 266.001 48.9369 266.441 51.1557C266.57 51.8018 266.591 52.3952 266.549 52.9119C266.425 54.4699 265.778 55.4561 265.778 56.138C265.746 59.2796 267.227 58.0613 267.342 59.6758C267.38 60.3269 267.365 60.9352 267.313 61.5015C267.009 64.6687 265.683 66.6585 265.492 69.8002C265.483 69.9432 265.476 70.0885 265.471 70.2365C265.407 71.8054 266.667 71.7068 266.61 74.0411C266.486 77.0001 265.495 75.7699 265.142 77.8265C265.123 77.9191 265.634 77.7951 265.839 78.1802C265.91 78.3144 265.944 78.5109 265.904 78.798C265.58 81.1555 265.085 84.0538 264.448 86.6681C263.41 89.9623 262.667 91.1469 261.942 92.7899C261.189 94.3743 260.486 95.8063 259.807 97.1803C259.198 98.409 258.623 99.5602 258.09 100.611C257.984 100.82 257.879 101.026 257.775 101.233C257.12 102.534 256.512 103.78 256.021 104.904C255.529 105.983 255.184 107.098 255.106 107.182C255.785 108.473 253.438 102.01 250.906 102.426C250.906 102.426 250.906 102.426 250.906 102.426C254.483 103.73 258.187 105.118 261.808 106.587C265.47 108.069 269.1 109.644 272.669 111.341C272.745 111.377 272.818 111.411 272.89 111.444C275.637 112.725 275.375 111.42 276.343 111.825C280.053 113.477 281.459 115.231 284.138 117.206C284.913 117.789 285.799 118.409 286.874 119.117C287.638 119.604 291.773 120.902 294.069 124.215C294.363 124.635 294.626 125.103 294.863 125.593C295.616 127.136 296.079 128.882 296.634 130.113C297.342 131.734 298.774 131.266 299.759 133.251C301 135.956 300.494 136.301 300.986 138.381C301.14 139.106 301.412 140.106 301.787 141.471C302.245 142.899 303.883 147.859 304.153 151.924C304.153 151.924 304.153 151.924 304.153 151.924C304.275 153.218 304.353 154.47 304.333 155.671C304.288 158.427 304.116 161.465 303.897 164.683C303.611 168.868 303.247 173.339 302.892 177.874C302.775 179.359 302.658 180.858 302.545 182.345C302.35 184.838 302.93 188.006 302.724 191.771C302.659 192.939 302.517 194.157 302.249 195.413C301.659 198.209 300.581 202.035 298.999 205.878C297.009 210.831 294.123 215.665 291.903 218.843C291.849 218.921 291.796 218.998 291.743 219.075C289.704 221.958 288.277 221.117 287.984 221.416C286.017 223.188 288.042 223.469 286.822 224.82C285.18 226.598 282.853 227.288 281.336 228.588C281.285 228.632 281.235 228.676 281.186 228.721C280.188 229.629 280.919 230.705 280.708 230.92C277.86 233.811 274.317 236.591 270.811 238.611C266.455 241.141 261.597 242.976 256.31 243.805C253.885 244.186 251.372 244.35 248.815 244.27C246.036 244.184 243.272 243.799 240.595 243.147C235.493 241.908 230.765 239.723 226.555 236.963C222.357 234.214 218.661 230.902 215.442 227.306C212.301 223.83 209.279 219.526 207.088 215.751C207.088 215.751 207.088 215.751 207.088 215.751C196.276 218.003 230.107 208.32 218.935 215.869C218.651 219.673 218.567 223.946 218.445 228.253C218.33 232.537 218.203 236.932 217.97 241.369C217.736 245.805 217.404 250.308 216.841 254.895C216.269 259.469 215.489 264.196 214.092 269.082C212.83 273.549 210.247 280.312 205.683 284.79C205.683 284.79 205.683 284.79 205.683 284.79C202.828 287.691 199.113 290.913 195.475 293.414C191.724 296.014 187.62 298.269 183.186 299.97C178.759 301.673 174.016 302.793 169.226 303.192C167.152 303.367 165.073 303.411 163.012 303.33C158.597 303.089 157.725 301.832 155.241 301.13C154.6 300.936 153.85 300.762 152.894 300.602C149.069 299.973 144.448 301.126 141.943 298.26C141.523 297.772 141.17 297.168 140.909 296.422C140.475 297.089 140.254 297.604 139.846 298.205C136.606 296.246 133.045 294.164 130.128 292.385C126.995 290.515 122.97 287.738 119.939 284.737C118.636 283.462 117.408 282.083 116.299 280.602C114.593 278.329 113.194 275.914 112.1 273.481C110.164 269.18 109.162 264.866 108.622 260.734C108.609 260.629 108.595 260.524 108.582 260.418C108.006 254.621 109.501 255.126 107.595 250.475C107.617 249.969 107.641 249.456 107.668 248.959C107.87 245.238 108.191 241.703 108.495 238.275C108.802 234.821 109.091 231.608 109.314 228.271C109.902 223.291 110.693 222.167 111.357 219.856C112.046 217.828 112.762 215.866 113.473 213.959C114.186 212.045 114.907 210.162 115.627 208.297C116.348 206.43 117.069 204.587 117.773 202.772C118.472 200.972 119.179 199.138 119.734 197.596C107.547 190.055 148.15 208.467 134.495 203.507C134.495 203.507 134.495 203.507 134.495 203.507C133.467 204.865 132.031 206.473 130.812 207.651C130.394 209.314 129.689 210.694 128.786 211.9C127.027 214.246 124.554 215.905 121.758 217.723C120.624 218.461 119.438 219.221 118.209 220.068C117.483 220.562 118.89 220.837 116.767 222.345C116.157 222.775 115.561 223.088 114.956 223.353C112.913 224.24 110.798 224.613 107.379 226.998C107.299 227.053 107.188 227.14 107.049 227.253C105.963 228.138 103.178 230.623 100.162 232.73C97.9075 234.315 95.5391 235.673 93.7986 236.134C93.2168 236.278 92.5453 236.468 91.9355 236.624C88.3181 237.582 83.2875 239.042 79.6121 239.338C80.3955 239.831 81.3695 240.223 82.2296 240.661C81.5437 240.937 80.7991 241.219 80.0836 241.479C78.7395 241.969 77.3325 242.432 75.9303 242.845C75.4169 242.102 74.9155 241.352 74.4375 240.591C73.3944 241.644 72.2655 242.668 71.0853 243.677C68.1442 240.37 70.0172 240.638 66.8439 241.887C66.2986 242.093 65.589 242.319 64.6879 242.529C61.5738 243.226 59.0725 242.416 55.8732 242.557C55.0681 242.59 54.3963 243.165 53.6156 243.506C53.273 243.656 52.91 243.761 52.5125 243.752C49.3256 243.634 51.4384 242.208 49.5622 241.87C47.7193 241.524 44.528 242.766 41.5345 240.959C43.1797 240.091 42.7419 239.292 41.5629 238.765C39.62 237.917 35.6435 237.602 34.7919 239.04C33.6886 238.634 32.8293 238.184 31.6111 237.782C33.4732 234.727 32.376 233.9 30.5472 233.772C28.8916 233.661 26.6165 234.121 25.4157 234.081C22.927 234.006 23.7249 232.375 23.2122 232.229C21.7178 231.786 22.4457 232.928 21.4408 232.512C20.562 232.146 19.7176 231.769 18.8657 231.37C18.8657 231.37 18.8657 231.37 18.8657 231.37C14.3022 229.381 8.40506 224.662 5.55797 219.202C4.53772 217.379 3.73819 215.47 3.1267 213.508C2.73783 212.178 2.09627 213.66 1.75959 212.036C1.45651 210.375 2.18394 208.722 1.95863 206.504C1.90627 205.912 0.99391 205.762 0.975818 204.803C0.964884 203.714 1.00477 202.689 1.08731 201.644C1.56888 195.907 3.1791 190.887 5.11183 186.242C7.07335 181.588 9.43126 177.299 11.9894 173.172C14.5098 169.118 17.2245 165.236 20.1385 161.36C20.5649 160.794 20.9993 160.223 21.4457 159.643C22.3321 158.499 21.7892 156.566 23.6604 154.353C24.8405 152.963 26.9419 151.389 28.8761 149.957C30.0255 149.095 31.2614 148.164 32.3077 147.23C33.082 146.543 32.3499 145.403 33.4028 144.51C35.9762 142.356 38.6222 141.054 41.3232 139.527C42.2517 139.007 43.2203 138.438 44.1763 137.822C47.5519 135.642 50.9226 133.278 54.3987 131.128C57.3673 129.293 60.4235 127.607 63.6288 126.325C64.948 125.799 65.2617 126.882 67.2036 126.243C67.9831 125.988 68.4801 125.751 68.7906 125.527C69.8186 124.787 68.8002 124.184 69.2167 123.794C71.0113 122.145 72.5944 123.777 74.3935 122.344C74.6704 122.125 73.6969 121.166 73.9698 121.02C77.8484 119.069 79.3659 121.037 82.6108 118.998C82.9783 118.771 83.3609 118.498 83.7883 118.16C86.998 118.16 85.0664 119.557 83.341 120.847C82.4482 121.514 81.5831 122.164 81.4672 122.548C80.9243 124.289 82.9215 125.13 85.176 125.493C86.4817 125.711 87.9167 125.753 88.9799 125.692C91.4858 125.547 91.0105 124.265 91.9141 123.951C94.0709 123.214 96.6684 122.346 99.2777 121.66C102.49 120.804 105.727 120.271 107.818 120.363C110.1 120.457 106.154 121.569 107.364 121.865C108.556 122.149 109.105 121.037 110.363 122.062C111.639 123.072 113.667 126.395 113.241 127.996ZM180.608 286.046C180.152 286.879 179.526 287.699 178.722 288.485C176.445 290.738 172.719 292.664 168.323 293.541C164.611 294.303 160.486 294.294 156.591 293.629C152.426 292.935 148.546 291.53 145.412 290.057C144.483 289.622 143.602 289.176 142.805 288.748C139.989 287.241 137.654 285.229 135.787 283.493C132.041 280.011 130.371 277.504 128.577 281.392C130.488 283.08 132.475 284.474 134.411 285.655C137.783 287.709 141.313 289.478 145.028 290.963C148.258 292.249 151.698 293.369 155.578 294.214C155.751 294.252 156.052 294.327 156.448 294.423C158.636 295.053 163.963 295.85 166.07 295.763C167.201 295.76 167.481 296.424 168.606 296.567C168.855 296.597 169.145 296.6 169.493 296.558C169.933 296.52 172.011 294.89 172.804 294.748C174.38 294.528 177.845 294.338 180.776 293.77C183.033 293.362 184.953 292.812 185.411 292.554C188.316 290.838 186.4 290.064 187.484 289.128C188.896 287.859 189.947 287.325 190.982 286.933C192.514 286.343 194.001 286.106 195.88 283.952C196.423 283.331 197.088 280.413 199.186 278.293C199.186 278.293 199.186 278.293 199.186 278.293C199.332 278.145 199.484 277.998 199.644 277.85C200.687 276.949 202.916 275.483 203.42 274.394C204.653 271.864 205.246 269.252 205.702 266.595C206.256 263.292 206.512 260.11 207.113 257.297C207.629 254.844 208.301 254.296 208.893 253.822C209.286 253.496 209.637 253.184 209.833 252.294C210.319 250.07 208.759 247.193 208.781 245.682C208.814 243.987 209.423 242.078 209.798 240.821C209.961 240.269 210.081 239.842 210.091 239.613C210.262 235.588 210.285 231.706 210.271 227.893C210.265 223.502 210.167 219.258 210.324 215.018C210.018 211.253 211.968 204.372 214.999 211.301C214.999 211.301 214.999 211.301 214.999 211.301C215.831 212.647 216.69 213.95 217.608 215.253C216.836 213.871 216.129 212.485 215.451 211.047C215.451 211.047 215.451 211.047 215.451 211.047C214.474 202.847 206.962 211.338 208.222 214.811C207.583 218.609 207.149 222.422 206.682 226.188C206.835 226.799 206.954 227.322 207.044 227.751C207.771 231.16 206.589 229.372 205.99 232.503C205.447 235.319 208.183 236.153 207.645 239.865C207.646 239.862 207.646 239.859 207.646 239.856C207.611 240.094 207.546 240.364 207.46 240.664C206.856 242.777 205.209 246.277 205.513 249.88C205.521 250.024 206.905 250.535 206.594 253.512C206.59 253.542 206.587 253.573 206.583 253.604C206.157 257.14 205.637 261.722 204.474 266.231C203.401 270.412 201.638 274.729 198.883 277.41C198.777 277.514 198.673 277.603 198.572 277.679C198.572 277.679 198.572 277.679 198.572 277.679C197.085 278.791 196.351 277.679 194.401 279.213C192.897 280.364 192.053 282.905 189.348 284.418C189.321 284.433 189.295 284.447 189.269 284.461C185.835 286.272 183.296 284.964 182.42 289.073C181.716 288.089 181.318 286.994 180.608 286.046ZM71.1892 233.768C70.8142 233.773 67.5123 232.703 66.0099 232.778C65.1854 232.836 64.8053 233.305 65.6611 234.642C65.8362 234.659 66.0121 234.674 66.1847 234.687C69.9317 234.974 73.8489 234.446 77.6427 233.436C81.3598 232.45 84.9876 231.019 88.5509 229.479C90.7487 228.527 92.9571 227.468 95.1306 226.469C92.5504 225.637 90.2124 226.301 87.6101 227.492C85.096 228.633 82.3497 230.294 79.0907 231.538C79.0879 231.539 79.085 231.54 79.0821 231.54C78.7722 231.657 79.7599 230.249 78.0305 231.016C77.8245 231.105 77.4999 231.322 77.0842 231.596C75.7927 232.463 73.4492 233.89 71.1892 233.768Z" fill="white"/>
<path d="M167.17 111.471C165.715 113.322 164.077 114.766 161.941 115.648C161.46 115.847 161.094 115.203 160.849 115.22C160.396 115.252 160.283 116.29 160.207 116.342C159.741 116.67 159.195 115.475 159.103 115.477C158.355 115.521 158.716 116.114 158.726 116.657C158.729 116.855 158.686 117.047 158.526 117.206C157.754 117.975 156.476 118.582 155.387 119.324C155.006 119.581 154.567 118.67 153.827 119.354C153.29 119.84 152.329 122.07 150.801 121.801C150.503 121.459 150.276 120.995 150.014 120.603C150.041 121.173 150.039 121.621 149.994 121.987C149.857 123.152 149.272 123.483 147.894 124.269C147.608 124.434 147.914 125.209 147.308 125.385C146.703 125.564 145.856 124.711 145.041 125.524C144.755 125.816 145.173 126.589 144.764 127.051C144.261 127.622 143.402 128.26 142.519 128.902C141.36 129.74 140.16 130.591 139.617 131.203C137.835 133.221 137.949 135.189 136.465 136.821C136.377 136.918 136.282 137.018 136.18 137.116C136.044 137.251 135.515 136.384 135.303 136.662C135.087 136.947 135.908 137.928 135.887 138.012C135.648 138.925 133.254 139.704 133.171 140.269C132.998 141.577 134.042 140.789 133.462 142.363C133.147 143.249 132.185 144.046 131.291 144.867C130.692 145.416 130.126 145.968 129.799 146.519C128.862 148.152 130.985 149.25 128.354 149.89C128.16 150.951 128.012 152.075 127.954 153.321C127.861 156.073 128.12 157.76 128.843 159.748C129.172 160.594 129.585 161.361 130.095 162.075C129.687 162.333 129.277 162.589 128.866 162.843C129.328 162.937 129.787 163 130.238 163.04C129.926 163.224 129.614 163.408 129.3 163.584C130.535 163.829 131.508 163.984 132.348 164.369C132.914 164.626 133.432 164.991 133.962 165.524C133.989 165.551 133.378 166.3 133.39 166.338C133.666 166.738 134.468 166.359 134.715 166.699C135.274 167.522 136.006 170.16 136.397 167.513C136.853 167.875 137.409 168.164 137.988 168.395C139.735 169.093 141.799 169.305 143.425 170.101C144.368 170.559 144.338 172.108 144.818 172.308C145.071 172.412 145.199 172.09 145.29 171.762C145.372 171.467 145.425 171.166 145.513 171.161C146.621 171.113 148.356 171.497 148.285 172.969C148.61 172.434 148.945 171.894 149.267 171.354C148.843 172.937 152.335 172.842 153.228 173.005C153.391 173.037 153.308 173.743 153.432 173.755C153.451 173.756 153.47 173.758 153.489 173.759C154.845 173.842 155.34 172.812 156.571 172.62C157.007 172.55 156.183 173.698 157.332 173.315C157.431 173.281 157.541 172.16 158.84 172.352C159.754 172.488 161.06 172.591 162.421 172.754C162.421 172.754 162.421 172.754 162.421 172.754C164.146 172.96 165.949 173.23 167.245 173.727C167.435 173.798 166.664 174.929 167.604 174.772C167.943 174.716 167.908 173.833 168.692 173.931C169.17 173.989 169.648 174.071 170.127 174.165C172.608 174.653 175.168 175.469 177.654 174.959C177.731 174.943 177.807 174.926 177.884 174.907C177.845 175.173 177.735 175.445 177.626 175.689C177.411 176.17 177.203 176.542 177.593 176.546C177.733 176.547 177.949 176.5 178.266 176.39C178.529 176.295 178.358 175.412 178.475 175.383C179.407 175.151 180.211 175.783 181.2 175.422C181.491 175.313 181.542 174.621 181.891 174.444C182.4 174.179 182.69 175.15 183.273 174.691C183.966 174.131 184.137 173.44 184.79 173.928C184.985 174.073 185.227 174.32 185.546 174.701C187.64 174.386 189.629 173.845 191.464 173.106C193.499 172.286 195.336 171.231 197.049 169.971C198.659 168.768 199.949 167.638 201.489 166.07C201.574 165.863 201.657 165.653 201.74 165.438C202.415 163.686 202.728 162.253 203.426 160.606C203.65 160.062 204.813 160.543 204.874 159.497C204.889 159.328 204.623 158.346 205.255 158.046C205.532 157.914 205.984 157.908 206.712 158.157C206.69 157.672 206.792 157.417 206.815 157.019C206.363 157.137 205.905 157.253 205.456 157.344C206.45 156.084 206.087 154.559 206.137 153.154C206.171 152.111 206.964 153.132 207.059 152.512C207.154 151.888 207.006 151.558 208.472 151.186C207.874 150.698 207.813 150.429 207.952 150.157C208.104 149.86 208.495 149.562 208.665 148.992C208.701 148.873 208.313 148.053 208.556 147.515C208.732 147.127 209.671 147.207 209.672 146.514C209.68 146.395 208.823 144.782 208.788 144.336C208.744 143.636 210.086 142.721 210.118 142.582C210.163 142.402 210.193 142.23 210.213 142.067C210.402 140.465 209.655 139.701 211.492 138.539C210.359 138.177 209.739 137.022 209.853 136.112C209.933 135.518 210.597 134.582 210.835 133.773C211.056 133.027 210.922 132.409 209.72 132.365C210.7 130.949 210.041 131.141 209.793 129.621C209.657 128.829 209.663 127.253 209.502 125.853C209.39 124.807 209.192 123.858 208.962 123.436C208.42 122.454 207.345 123.499 207.013 123.191C206.472 122.736 207.544 122.622 207.344 122.231C206.855 121.307 206.247 120.534 205.294 119.741C205.294 119.741 205.294 119.741 205.294 119.741C205.15 119.62 205.002 119.505 204.85 119.396C205.39 118.919 205.928 118.432 206.461 117.946C206.222 118.027 205.984 118.11 205.747 118.195C205.57 117.954 205.353 117.713 205.202 117.503C204.074 121.07 204.104 115.758 203.171 115.093C202.485 114.433 200.246 114.799 199.272 114.75C199.022 114.725 199.484 114.081 199.432 114.077C198.781 114.043 198.522 114.504 197.8 114.188C197.698 114.145 197.614 114.041 197.535 113.908C197.318 113.537 197.12 112.938 196.801 112.853C193.581 112.011 190.163 113.19 186.75 114.118C186.728 114.124 186.707 114.13 186.686 114.135C186.103 114.293 185.268 113.289 184.727 113.419C183.97 113.604 183.804 114.679 183.129 114.927C182.457 115.172 181.065 114.464 180.651 114.828C180.252 115.181 181.471 115.893 180.511 115.959C180.067 115.994 180.43 114.929 179.936 115.111C178.376 115.682 176.779 117.631 174.756 117.629C174.947 117.809 175.15 117.953 175.35 118.116C175.254 118.163 175.159 118.208 175.063 118.253C173.478 118.987 171.836 119.373 170.246 120.36C169.653 120.724 169.072 122.045 168.537 122.445C167.998 122.844 167.268 122.4 166.823 122.719C166.64 122.85 167.152 123.357 167.026 123.438C165.887 124.168 164.732 124.219 163.647 124.74C163.234 124.94 162.833 125.209 162.458 125.609C159.799 128.443 157.327 131.55 155.335 134.784C153.598 137.579 152.163 140.706 151.587 143.199C151.53 143.433 152.382 143.824 152.422 144.174C152.482 144.738 151.676 144.597 151.627 144.664C151.336 145.114 152.122 145.062 151.997 145.714C151.995 145.726 151.992 145.738 151.99 145.75C151.866 147.439 151.308 146.768 151.723 147.749C151.996 148.117 152.445 148.471 153.01 148.766C154.305 149.444 156.061 149.782 158.053 150.005C158.262 150.025 157.866 151.067 158.24 151.165C158.666 151.276 159.064 151.334 159.414 151.355C161.278 151.417 162.187 150.848 164.979 150.824C165.615 150.803 166.343 150.751 167.128 150.637C169.317 150.348 171.799 149.437 173.253 148.107C174.05 147.41 174.612 146.606 174.957 145.824C174.959 145.825 174.961 145.826 174.964 145.827C173.499 144.353 173.912 143.811 175.23 142.658C175.335 142.572 175.445 142.484 175.56 142.394C175.626 142.486 175.69 142.578 175.751 142.67C177.349 145.076 177.291 148.055 175.649 150.338C174.047 152.635 171.162 154.07 168.126 154.677C165.2 155.271 162.085 155.231 158.971 154.838C158.943 154.834 158.914 154.831 158.885 154.827C155.89 154.425 152.816 153.777 150.178 152.26C147.598 150.79 145.596 148.249 145.757 144.666C145.943 139.939 147.906 135.265 150.724 131.497C150.901 131.261 151.079 131.034 151.263 130.805C151.967 129.938 153.172 130.287 153.551 129.428C153.619 129.28 152.666 129.033 152.902 128.598C154.624 125.496 157.378 123.018 160.256 120.889C162.953 118.89 165.766 117.17 168.263 115.199C169.665 114.107 169.376 113.116 170.623 112.079C170.619 112.627 170.713 113.144 170.751 113.675C171.235 113.507 171.713 113.337 172.186 113.165C176.661 111.549 180.893 109.666 185.435 108.555C187.251 108.115 189.104 107.814 190.96 107.752C191.279 107.744 191.371 108.717 191.691 108.74C192.325 108.791 192.936 107.716 193.522 107.697C194.288 107.68 194.367 108.465 195.037 108.473C195.366 108.482 195.346 107.721 196.062 107.943C196.122 107.963 196.054 108.741 196.535 108.716C197.161 108.685 198.096 108.655 199.049 108.714C200.113 108.772 201.176 108.947 201.763 109.099C203.223 109.479 203.586 111.111 203.96 111.45C204.964 112.393 205.666 111.419 206.644 112.241C208 113.429 209.144 114.823 210.12 116.384C210.12 116.384 210.12 116.384 210.12 116.384C211.739 118.987 212.713 121.825 213.315 124.755C213.906 127.651 214.126 130.605 214.184 133.616C214.201 134.527 214.203 135.454 214.193 136.378C214.199 136.922 215.461 139.076 215.305 140.147C215.263 140.506 214.713 142.311 214.64 142.579C214.636 142.598 214.631 142.616 214.627 142.634C214.354 143.712 213.422 144.518 213.154 145.075C212.627 146.169 213.595 147.718 213.568 148.395C213.543 149.339 213.091 150.788 212.817 151.542C212.752 151.725 212.699 151.868 212.666 151.956C212.256 153.054 210.866 152.216 210.969 153.11C210.998 153.374 212.227 153.501 211.952 154.328C211.714 155.017 210.758 154.997 210.439 155.398C210.125 155.791 211.108 157.143 210.957 157.424C210.368 158.498 209.581 158.928 208.904 159.719C208.674 159.987 208.455 160.294 208.255 160.68C207.761 161.757 205.907 165.941 204.922 167.743C204.711 168.165 204.575 168.459 204.561 168.579C204.289 170.553 205.217 169.436 205.851 168.415C206.122 167.98 206.337 167.574 206.391 167.521C207.348 166.609 207.732 167.058 207.497 165.378C210.625 165.974 208.914 161.249 211.15 160.749C211.447 160.676 211.816 160.666 212.278 160.738C210.314 158.674 211.867 158.403 212.782 157.512C214.029 156.284 212.168 156.876 212.55 155.8C212.702 155.381 214.258 154.523 214.305 153.805C214.348 153.132 213.628 152.612 213.732 151.803C213.738 151.763 213.745 151.722 213.754 151.68C214.1 150.102 214.814 148.962 216.178 147.834C215.754 147.485 215.325 147.158 214.895 146.823C215.59 146.007 216.266 145.161 216.923 144.289C216.48 144.377 216.034 144.462 215.591 144.544C215.573 144.263 215.557 143.982 215.538 143.702C215.804 143.419 216.062 143.137 216.316 142.852C216.792 142.317 217.258 141.771 217.747 141.186C215.522 138.381 217.567 139.326 217.963 137.859C218.334 136.389 216.908 135.538 216.874 134.436C216.861 134.083 216.837 133.777 216.809 133.492C216.713 132.569 216.584 131.913 216.541 130.753C216.513 129.887 217.644 128.202 215.666 129.718C215.35 128.127 214.717 126.244 214.209 124.498C213.876 123.338 213.601 122.22 213.562 121.195C213.525 120.431 214.526 121.06 214.559 120.919C214.692 120.175 213.465 120.138 213.338 119.496C213.152 118.427 212.817 116.112 212.489 115.301C212.437 115.159 212.357 115.024 212.257 114.897C212.257 114.897 212.257 114.897 212.257 114.897C211.503 113.908 209.648 113.465 209.473 113.417C208.298 112.978 208.974 111.993 208.652 111.785C206.81 110.702 206.177 110.935 207.13 108.49C205.967 108.951 203.249 109.439 203.611 107.606C202.839 109.055 201.376 108.043 200.213 108.109C200.181 107.592 200.13 107.074 200.071 106.55C199.913 106.657 199.755 106.752 199.597 106.835C196.774 108.359 193.143 106.079 190.101 106.06C190.023 106.06 190.006 107.304 189.545 107.072C189.514 107.053 189.501 106.493 189.192 106.455C188.462 106.358 186.24 105.949 184.801 105.871C184.236 105.83 183.805 105.823 183.68 105.852C182.042 106.249 182.075 107.226 181.165 107.613C179.973 108.144 179.522 107.422 178.403 107.985C177.882 108.252 177.806 109.47 176.94 109.681C176.422 109.811 176.017 109.048 175.599 109.163C174.091 109.589 173.382 110.565 171.646 110.227C172.288 111.885 171.903 111.866 171.351 111.688C171.044 111.589 170.687 111.439 170.443 111.495C167.637 112.128 165.459 115.005 163.49 116.194C161.856 117.167 160.253 118.131 158.695 119.116C154.459 121.81 150.392 124.711 147.021 128.858C146.897 129.012 146.775 129.167 146.654 129.323C145.895 130.318 146.898 131.299 146.148 132.332C145.814 132.798 144.644 132.8 144.166 133.629C143.766 134.316 143.701 135.54 143.295 136.41C143.181 136.655 142.318 136.288 142.142 136.665C141.09 138.916 140.684 141.536 140.712 143.789C140.701 144.459 140.722 145.149 140.793 145.871C140.916 147.194 139.861 148.307 141.971 147.846C141.504 148.395 141.156 149.056 140.794 149.742C142.674 151.406 142.026 153.312 143.998 155.194C144.207 155.405 146.247 155.642 146.522 156.771C146.543 156.848 146.557 156.931 146.563 157.019C147.094 156.458 147.385 155.855 147.842 155.328C148.69 155.646 149.268 157.066 149.782 157.449C150.25 157.815 151.048 157.092 151.197 157.155C151.779 157.406 151.105 158.536 151.139 158.577C153.554 160.952 153.659 160.14 155.846 158.711C156.159 158.487 157.193 159.127 158.202 159.313C158.882 159.444 159.536 159.373 159.831 158.767C159.798 159.402 159.579 159.942 159.467 160.539C160.365 160.796 161.291 161.016 162.229 161.189C162.036 160.578 161.818 159.962 161.665 159.344C163.492 159.925 164.929 158.383 166.315 158.238C167.124 158.148 167.256 159.486 167.699 159.108C167.783 159.033 167.457 158.169 167.718 158.044C168.128 157.847 168.5 157.705 168.848 157.604C170.279 157.167 171.446 157.497 173.262 156.827C174.344 156.393 174.289 154.559 176.142 154.546C176.27 154.601 178.585 154.62 177.724 152.43C177.816 152.463 177.904 152.492 177.988 152.517C178.532 152.681 178.932 152.721 179.437 152.874C178.187 149.342 180.297 151.885 182.332 149.497C183.214 148.497 183.831 144.944 183.469 142.846C183.407 142.343 183.323 141.91 183.245 141.604C182.998 140.674 181.76 140.796 181.702 140.658C181.336 139.82 182.515 139.669 182.188 138.827C181.841 137.928 180.321 137.309 180.214 136.448C180.129 135.797 181.691 135.86 180.918 135.083C180.752 134.932 179.725 135.83 179.893 134.752C179.935 134.605 180.649 132.586 180.766 132.116C181.878 132.717 183.655 134.745 184.236 135.825C185.351 137.627 186.374 139.977 186.814 142.923C187.506 146.965 186.569 152.693 182.957 157.145C179.798 161.164 175.25 163.774 170.709 165.143C166.273 166.475 161.703 166.808 157.145 166.245C152.507 165.618 147.769 164.186 143.338 160.7C138.429 157.798 134.866 147.602 136.592 143.072C137.138 140.014 138.515 136.526 139.797 134.123C140.723 132.368 142.475 131.933 143.183 130.974C143.914 130.004 142.369 130.244 143.041 129.363C143.675 128.555 144.715 128.344 145.372 127.682C145.416 127.637 145.458 127.592 145.497 127.545C148.909 123.475 152.748 120.005 156.711 116.863C157.749 116.042 158.806 115.238 159.866 114.459C161.181 113.494 161.666 111.935 162.908 111.061C163.392 110.724 164.112 111.736 164.444 111.496C166.088 110.323 167.6 109.062 169.184 107.856C171.081 106.414 173.087 105.049 175.424 104.143C177.229 103.442 179.529 103.715 181.351 103.273C182.237 103.058 183.093 102.595 183.933 102.194C184.519 101.912 185.139 101.65 185.73 101.532C186.512 101.373 187.073 102.244 187.356 102.275C188.357 102.378 187.868 101.285 188.381 101.218C189.824 101.055 190.601 102.397 191.911 102.246C192.426 102.193 192.346 101.302 193.124 101.169C194.112 101.016 193.73 101.826 194.425 101.887C194.467 101.894 194.361 101.25 194.743 101.248C196.615 101.228 198.988 101.263 201.078 101.756C201.687 101.896 202.269 102.07 202.801 102.275C207.652 104.033 211.5 108.821 213.65 112.202C214.237 113.077 214.738 112.376 214.97 112.627C215.044 112.709 215.11 112.79 215.169 112.871C215.169 112.871 215.169 112.871 215.169 112.871C215.981 113.994 215.609 114.965 216.71 116.301C216.894 116.517 218.523 117.18 218.714 118.377C218.818 119.014 218.41 119.929 218.427 120.459C218.444 120.993 219.465 120.719 219.667 121.317C219.938 122.141 219.538 122.279 219.584 122.95C219.597 123.163 219.654 123.431 219.782 123.793C220.001 124.378 221.468 126.263 221.636 127.925C221.816 129.549 221.649 131.412 221.457 133.274C221.331 134.499 221.198 135.733 221.168 136.932C221.14 137.959 222.166 139.353 222.035 140.98C221.979 141.682 221.859 142.584 221.697 143.543C221.406 145.291 220.958 147.208 220.684 148.473C220.466 149.478 219.339 149.299 219.268 149.406C218.79 150.086 220.092 150.069 219.923 150.567C219.688 151.251 218.617 151.666 218.39 152.264C218.245 152.648 219.125 152.961 219.108 153.05C219.092 153.14 219.075 153.23 219.058 153.319C218.436 156.496 217.385 159.199 216.162 162.216C216.067 162.447 215.969 162.683 215.871 162.915C214.595 165.967 212.869 169.311 210.981 172.13C209.407 174.552 206.889 177.448 204.374 179.487C201.766 181.645 198.78 183.38 195.679 184.609C192.575 185.845 189.386 186.591 186.277 186.994C183.161 187.397 180.114 187.466 177.176 187.338C174.586 187.225 172.076 186.958 169.633 186.596C169.179 186.529 168.881 186.362 168.643 186.168C168.137 185.753 167.91 185.216 167.057 185.229C165.815 185.246 164.257 187.587 163.676 184.663C163.559 185.218 163.503 185.618 163.394 186.123C162.433 185.654 161.45 185.443 160.463 185.342C160.463 185.342 160.463 185.342 160.463 185.342C159.035 185.198 157.585 185.315 156.167 185.174C154.664 185.026 153.287 184.775 151.879 184.507C151.631 184.46 151.381 184.412 151.128 184.364C149.633 184.074 149.927 183.121 148.404 184.174C146.603 183.642 144.762 183.15 142.897 182.611C139.863 181.732 136.745 180.738 133.699 179.183C131.959 178.291 130.253 177.212 128.69 175.866C126.574 176.55 125.518 175.24 124.347 173.669C124.042 173.26 123.725 172.83 123.369 172.393C123.155 172.122 122.872 172.943 122.192 172.145C121.356 171.104 121.789 169.871 120.552 168.147C120.273 167.814 118.064 165.702 117.468 163.788C117.32 163.355 117.249 162.949 117.285 162.62C117.453 160.92 117.462 158.76 117.985 157.148C117.5 157.4 117.046 157.726 116.58 158.035C116.401 157.202 116.269 156.447 116.16 155.679C116.763 155.563 117.368 155.454 117.976 155.356C117.391 154.931 116.823 154.52 116.248 154.094C119.197 153.412 118.44 154.118 117.775 152.619C117.733 152.524 117.691 152.419 117.651 152.304C117.334 151.355 117.964 150.647 117.808 149.615C117.751 149.239 116.886 148.859 116.85 148.414C116.777 147.327 117.896 148.166 118.02 147.548C118.14 146.947 117.02 145.677 117.918 144.801C119.976 146.534 120.104 143.318 118.383 142.524C118.51 142.154 118.697 141.874 118.799 141.452C122.176 143.029 121.454 141.666 120.839 140.455C120.65 140.088 120.469 139.735 120.399 139.507C120.111 138.521 121.289 139.089 121.316 138.905C121.407 138.374 120.756 138.489 120.897 138.147C121.852 135.883 123.661 134.293 124.953 132.384C125.141 132.106 124.359 131.963 124.633 131.669C124.907 131.377 125.722 131.467 125.997 130.965C126.072 130.83 125.562 130.429 125.698 130.228C125.836 130.027 125.977 129.827 126.116 129.632C128.454 126.383 131.155 123.678 133.93 120.924C134.472 120.388 135.018 119.849 135.567 119.304C135.886 118.988 135.316 117.925 135.969 117.33C136.625 116.734 138.299 116.559 139.139 115.887C139.363 115.708 138.769 114.952 139.068 114.712C140.021 113.947 141.276 113.756 142.327 113.099C142.396 113.056 142.465 113.01 142.533 112.963C144.376 111.66 145.86 109.711 148.031 108.779C148.442 108.601 148.867 109.28 149.497 109.091C150.58 108.774 149.574 108.07 149.656 107.815C149.942 106.983 151.028 108.109 151.352 107.391C151.402 107.28 150.75 106.617 150.818 106.551C151.023 106.369 151.245 106.277 151.461 106.242C152.409 106.089 153.321 106.969 153.86 105.482C155.692 105.754 154.002 107.376 154.193 108.048C154.631 109.682 156.905 110.4 157.936 110.451C158.822 110.493 158.286 109.657 158.532 109.499C159.816 108.665 161.72 107.314 162.961 107.171C163.717 107.075 162.811 108.054 163.285 108.163C163.744 108.28 163.595 107.509 164.302 108.053C165.019 108.591 166.755 110.393 167.17 111.471ZM176.48 177.322C175.01 179.528 172.153 180.119 169.408 179.984C167.417 179.894 165.484 179.446 164.078 179.075C163.159 178.832 162.327 178.298 161.628 177.855C161.628 177.855 161.628 177.855 161.628 177.855C160.214 176.961 159.301 176.447 159.264 179.4C159.974 179.51 160.682 179.596 161.346 179.667C161.346 179.667 161.346 179.667 161.346 179.667C163.53 179.902 165.596 179.989 168.064 180.42C168.221 180.447 168.733 180.608 169.309 180.783C169.967 180.985 170.707 181.204 171.083 181.283C171.478 181.366 171.415 182.087 171.964 182.136C172.086 182.145 172.838 181.269 173.074 181.315C173.875 181.484 176.27 183.097 176.638 183.062C177.093 183.026 177.267 182.763 177.364 182.473C177.477 182.133 177.487 181.756 177.714 181.654C179.119 181.018 179.247 182.709 180.656 182.152C180.91 182.051 181.697 180.571 182.707 180.711C183.119 180.771 183.88 181.481 184.2 181.417C184.661 181.327 185.131 181.172 185.594 180.989C186.885 180.484 188.116 179.762 189.267 179.636C190.554 179.485 190.493 180.659 191.221 180.629C191.962 180.586 192.395 179.071 192.803 178.85C193.011 178.74 193.259 178.701 193.511 178.694C194.077 178.68 194.673 178.82 194.824 178.749C197.09 177.684 198.986 176.226 200.609 174.596C202.056 173.144 203.29 171.562 204.48 169.9C202.926 171.22 201.291 172.343 199.563 173.237C198.745 173.66 197.913 174.027 197.072 174.336C196.299 176.146 196.419 174.805 195.355 174.955C194.52 175.046 195.183 176.944 194.044 177.183C194.045 177.182 194.046 177.182 194.046 177.182C193.805 177.228 193.374 177.112 192.897 177.017C192.223 176.885 191.47 176.787 190.895 177.303C190.86 177.334 191.05 178.366 190.152 178.635C188.887 179.01 187.18 179.57 185.466 179.867C184.474 180.043 183.488 180.137 182.612 180.099C181.913 180.065 182.011 178.976 181.204 178.864C180.624 178.78 179.938 179.792 179.007 179.554C178.358 179.384 177.921 178.766 177.511 178.656C177.182 178.567 176.868 178.804 176.455 179.851C176.434 178.992 176.511 178.16 176.48 177.322ZM123.257 154.851C123.326 154.684 126.108 152.695 123.224 153.148C121.914 155.789 122.544 158.869 123.119 161.781C123.173 162.06 123.23 162.348 123.282 162.632C123.762 162.167 124.064 161.757 124.241 161.382C124.882 160.086 123.839 158.972 123.489 157.316C123.489 157.315 123.489 157.314 123.489 157.313C123.469 157.218 124.248 157.549 124.056 157.011C123.96 156.756 122.747 155.766 123.257 154.851Z" fill="#FFCB6B"/>
</svg>
